# xmcd CD database file
#
# Track frame offsets:
#	150
#	15454
#	29888
#	32613
#	37929
#	45798
#	50583
#
# Disc length: 876 seconds
#
# Revision: 0
# Processed by: cddbd v1.5.1PL2 Copyright (c) Steve Scherf et al.
# Submitted via: CDex 1.51
#
DISCID=4b036a07
DTITLE=Unit Lost - Ep
DYEAR=2005
DGENRE=New Age
TTITLE0=Sakewar
TTITLE1=Hevikopteri
TTITLE2=Särkijumalan lapsi
TTITLE3=Jäiccä
TTITLE4=Zenith Jammin´
TTITLE5=Water Hazard
TTITLE6=Buranoidi
EXTD=YEAR: 2005
EXTT0=
EXTT1=
EXTT2=
EXTT3=
EXTT4=
EXTT5=
EXTT6=
PLAYORDER=
